<svg width="350" height="400" role="img" aria-labelledby="victory-container-79-title victory-container-79-desc" viewBox="0 0 350 400" style="pointer-events: all; width: 100%; height: 100%;"><g role="presentation"><line x1="0" x2="270" y1="368" y2="368" role="presentation" shape-rendering="auto" vector-effect="non-scaling-stroke" style="stroke: black; stroke-width: 1; fill: transparent; stroke-linecap: round; stroke-linejoin: round;"></line><g role="presentation"><line x1="63.699068293925485" x2="63.699068293925485" y1="368" y2="0" role="presentation" shape-rendering="auto" vector-effect="non-scaling-stroke" style="stroke: rgb(236, 239, 241); fill: none; stroke-dasharray: 10, 5; stroke-linecap: round; stroke-linejoin: round; pointer-events: visible;"></line><line x1="63.699068293925485" x2="63.699068293925485" y1="368" y2="378" role="presentation" shape-rendering="auto" vector-effect="non-scaling-stroke" style="stroke: black; stroke-width: 1; fill: transparent; stroke-linecap: round; stroke-linejoin: round;"></line><text dx="0" dy="10.26" x="63.699068293925485" y="386"><tspan x="63.699068293925485" dx="0" text-anchor="middle" style="fill: rgb(69, 90, 100); font-size: 12px; font-family: &quot;Roboto&quot;, &quot;Helvetica Neue&quot;, Helvetica, sans-serif; stroke: transparent; letter-spacing: normal; padding: 8px; stroke-width: 0;">+10k</tspan></text></g><g role="presentation"><line x1="127.39813658785097" x2="127.39813658785097" y1="368" y2="0" role="presentation" shape-rendering="auto" vector-effect="non-scaling-stroke" style="stroke: rgb(236, 239, 241); fill: none; stroke-dasharray: 10, 5; stroke-linecap: round; stroke-linejoin: round; pointer-events: visible;"></line><line x1="127.39813658785097" x2="127.39813658785097" y1="368" y2="378" role="presentation" shape-rendering="auto" vector-effect="non-scaling-stroke" style="stroke: black; stroke-width: 1; fill: transparent; stroke-linecap: round; stroke-linejoin: round;"></line><text dx="0" dy="10.26" x="127.39813658785097" y="386"><tspan x="127.39813658785097" dx="0" text-anchor="middle" style="fill: rgb(69, 90, 100); font-size: 12px; font-family: &quot;Roboto&quot;, &quot;Helvetica Neue&quot;, Helvetica, sans-serif; stroke: transparent; letter-spacing: normal; padding: 8px; stroke-width: 0;">+20k</tspan></text></g><g role="presentation"><line x1="191.09720488177646" x2="191.09720488177646" y1="368" y2="0" role="presentation" shape-rendering="auto" vector-effect="non-scaling-stroke" style="stroke: rgb(236, 239, 241); fill: none; stroke-dasharray: 10, 5; stroke-linecap: round; stroke-linejoin: round; pointer-events: visible;"></line><line x1="191.09720488177646" x2="191.09720488177646" y1="368" y2="378" role="presentation" shape-rendering="auto" vector-effect="non-scaling-stroke" style="stroke: black; stroke-width: 1; fill: transparent; stroke-linecap: round; stroke-linejoin: round;"></line><text dx="0" dy="10.26" x="191.09720488177646" y="386"><tspan x="191.09720488177646" dx="0" text-anchor="middle" style="fill: rgb(69, 90, 100); font-size: 12px; font-family: &quot;Roboto&quot;, &quot;Helvetica Neue&quot;, Helvetica, sans-serif; stroke: transparent; letter-spacing: normal; padding: 8px; stroke-width: 0;">+30k</tspan></text></g><g role="presentation"><line x1="254.79627317570194" x2="254.79627317570194" y1="368" y2="0" role="presentation" shape-rendering="auto" vector-effect="non-scaling-stroke" style="stroke: rgb(236, 239, 241); fill: none; stroke-dasharray: 10, 5; stroke-linecap: round; stroke-linejoin: round; pointer-events: visible;"></line><line x1="254.79627317570194" x2="254.79627317570194" y1="368" y2="378" role="presentation" shape-rendering="auto" vector-effect="non-scaling-stroke" style="stroke: black; stroke-width: 1; fill: transparent; stroke-linecap: round; stroke-linejoin: round;"></line><text dx="0" dy="10.26" x="254.79627317570194" y="386"><tspan x="254.79627317570194" dx="0" text-anchor="middle" style="fill: rgb(69, 90, 100); font-size: 12px; font-family: &quot;Roboto&quot;, &quot;Helvetica Neue&quot;, Helvetica, sans-serif; stroke: transparent; letter-spacing: normal; padding: 8px; stroke-width: 0;">+40k</tspan></text></g></g><g role="presentation"><line x1="0" x2="0" y1="0" y2="368" role="presentation" shape-rendering="auto" vector-effect="non-scaling-stroke" style="stroke: rgb(144, 164, 174); fill: transparent; stroke-width: 2; stroke-linecap: round; stroke-linejoin: round;"></line><g role="presentation"><line x1="0" x2="270" y1="280.9738761141069" y2="280.9738761141069" role="presentation" shape-rendering="auto" vector-effect="non-scaling-stroke" style="stroke: rgb(236, 239, 241); fill: none; stroke-dasharray: 10, 5; stroke-linecap: round; stroke-linejoin: round; pointer-events: visible;"></line><line x1="0" x2="-5" y1="280.9738761141069" y2="280.9738761141069" role="presentation" shape-rendering="auto" vector-effect="non-scaling-stroke" style="stroke: rgb(144, 164, 174); stroke-width: 0; fill: transparent; stroke-linecap: round; stroke-linejoin: round;"></line><text dx="0" dy="4.26" x="-13" y="280.9738761141069"><tspan x="-13" dx="0" text-anchor="end" style="fill: rgb(69, 90, 100); font-size: 12px; font-family: &quot;Roboto&quot;, &quot;Helvetica Neue&quot;, Helvetica, sans-serif; stroke: transparent; letter-spacing: normal; padding: 8px; stroke-width: 0;"></tspan></text></g><g role="presentation"><line x1="0" x2="270" y1="193.94775222821377" y2="193.94775222821377" role="presentation" shape-rendering="auto" vector-effect="non-scaling-stroke" style="stroke: rgb(236, 239, 241); fill: none; stroke-dasharray: 10, 5; stroke-linecap: round; stroke-linejoin: round; pointer-events: visible;"></line><line x1="0" x2="-5" y1="193.94775222821377" y2="193.94775222821377" role="presentation" shape-rendering="auto" vector-effect="non-scaling-stroke" style="stroke: rgb(144, 164, 174); stroke-width: 0; fill: transparent; stroke-linecap: round; stroke-linejoin: round;"></line><text dx="0" dy="4.26" x="-13" y="193.94775222821377"><tspan x="-13" dx="0" text-anchor="end" style="fill: rgb(69, 90, 100); font-size: 12px; font-family: &quot;Roboto&quot;, &quot;Helvetica Neue&quot;, Helvetica, sans-serif; stroke: transparent; letter-spacing: normal; padding: 8px; stroke-width: 0;"></tspan></text></g><g role="presentation"><line x1="0" x2="270" y1="106.92162834232067" y2="106.92162834232067" role="presentation" shape-rendering="auto" vector-effect="non-scaling-stroke" style="stroke: rgb(236, 239, 241); fill: none; stroke-dasharray: 10, 5; stroke-linecap: round; stroke-linejoin: round; pointer-events: visible;"></line><line x1="0" x2="-5" y1="106.92162834232067" y2="106.92162834232067" role="presentation" shape-rendering="auto" vector-effect="non-scaling-stroke" style="stroke: rgb(144, 164, 174); stroke-width: 0; fill: transparent; stroke-linecap: round; stroke-linejoin: round;"></line><text dx="0" dy="4.26" x="-13" y="106.92162834232067"><tspan x="-13" dx="0" text-anchor="end" style="fill: rgb(69, 90, 100); font-size: 12px; font-family: &quot;Roboto&quot;, &quot;Helvetica Neue&quot;, Helvetica, sans-serif; stroke: transparent; letter-spacing: normal; padding: 8px; stroke-width: 0;"></tspan></text></g><g role="presentation"><line x1="0" x2="270" y1="19.895504456427545" y2="19.895504456427545" role="presentation" shape-rendering="auto" vector-effect="non-scaling-stroke" style="stroke: rgb(236, 239, 241); fill: none; stroke-dasharray: 10, 5; stroke-linecap: round; stroke-linejoin: round; pointer-events: visible;"></line><line x1="0" x2="-5" y1="19.895504456427545" y2="19.895504456427545" role="presentation" shape-rendering="auto" vector-effect="non-scaling-stroke" style="stroke: rgb(144, 164, 174); stroke-width: 0; fill: transparent; stroke-linecap: round; stroke-linejoin: round;"></line><text dx="0" dy="4.26" x="-13" y="19.895504456427545"><tspan x="-13" dx="0" text-anchor="end" style="fill: rgb(69, 90, 100); font-size: 12px; font-family: &quot;Roboto&quot;, &quot;Helvetica Neue&quot;, Helvetica, sans-serif; stroke: transparent; letter-spacing: normal; padding: 8px; stroke-width: 0;"></tspan></text></g></g><g role="presentation"><path d="M 0, 24.077322638245725
      L 0, 15.713686274609364
      L 250.10165184243965, 15.713686274609364
      A 0 0 0 0 1, 250.10165184243965, 15.713686274609364
      L 250.10165184243965, 24.077322638245725
      A 0 0 0 0 1, 250.10165184243965, 24.077322638245725
      L 0, 24.077322638245725
      z" role="presentation" shape-rendering="auto"></path><path d="M 0, 41.482547415424385
      L 0, 33.118911051788025
      L 173.90482634924595, 33.118911051788025
      A 0 0 0 0 1, 173.90482634924595, 33.118911051788025
      L 173.90482634924595, 41.482547415424385
      A 0 0 0 0 1, 173.90482634924595, 41.482547415424385
      L 0, 41.482547415424385
      z" role="presentation" shape-rendering="auto"></path><path d="M 0, 58.88777219260299
      L 0, 50.52413582896663
      L 141.36097235787943, 50.52413582896663
      A 0 0 0 0 1, 141.36097235787943, 50.52413582896663
      L 141.36097235787943, 58.88777219260299
      A 0 0 0 0 1, 141.36097235787943, 58.88777219260299
      L 0, 58.88777219260299
      z" role="presentation" shape-rendering="auto"></path><path d="M 0, 76.2929969697816
      L 0, 67.92936060614522
      L 137.43710975097363, 67.92936060614522
      A 0 0 0 0 1, 137.43710975097363, 67.92936060614522
      L 137.43710975097363, 76.2929969697816
      A 0 0 0 0 1, 137.43710975097363, 76.2929969697816
      L 0, 76.2929969697816
      z" role="presentation" shape-rendering="auto"></path><path d="M 0, 93.69822174696026
      L 0, 85.33458538332388
      L 137.41163012365607, 85.33458538332388
      A 0 0 0 0 1, 137.41163012365607, 85.33458538332388
      L 137.41163012365607, 93.69822174696026
      A 0 0 0 0 1, 137.41163012365607, 93.69822174696026
      L 0, 93.69822174696026
      z" role="presentation" shape-rendering="auto"></path><path d="M 0, 111.10344652413886
      L 0, 102.73981016050249
      L 126.21333391758395, 102.73981016050249
      A 0 0 0 0 1, 126.21333391758395, 102.73981016050249
      L 126.21333391758395, 111.10344652413886
      A 0 0 0 0 1, 126.21333391758395, 111.10344652413886
      L 0, 111.10344652413886
      z" role="presentation" shape-rendering="auto"></path><path d="M 0, 128.5086713013175
      L 0, 120.14503493768112
      L 110.24397749629684, 120.14503493768112
      A 0 0 0 0 1, 110.24397749629684, 120.14503493768112
      L 110.24397749629684, 128.5086713013175
      A 0 0 0 0 1, 110.24397749629684, 128.5086713013175
      L 0, 128.5086713013175
      z" role="presentation" shape-rendering="auto"></path><path d="M 0, 145.9138960784961
      L 0, 137.55025971485972
      L 97.65067169458777, 137.55025971485972
      A 0 0 0 0 1, 97.65067169458777, 137.55025971485972
      L 97.65067169458777, 145.9138960784961
      A 0 0 0 0 1, 97.65067169458777, 145.9138960784961
      L 0, 145.9138960784961
      z" role="presentation" shape-rendering="auto"></path><path d="M 0, 163.31912085567473
      L 0, 154.95548449203835
      L 93.40831374621234, 154.95548449203835
      A 0 0 0 0 1, 93.40831374621234, 154.95548449203835
      L 93.40831374621234, 163.31912085567473
      A 0 0 0 0 1, 93.40831374621234, 163.31912085567473
      L 0, 163.31912085567473
      z" role="presentation" shape-rendering="auto"></path><path d="M 0, 180.72434563285333
      L 0, 172.36070926921695
      L 92.58022585839132, 172.36070926921695
      A 0 0 0 0 1, 92.58022585839132, 172.36070926921695
      L 92.58022585839132, 180.72434563285333
      A 0 0 0 0 1, 92.58022585839132, 180.72434563285333
      L 0, 180.72434563285333
      z" role="presentation" shape-rendering="auto"></path><path d="M 0, 198.12957041003196
      L 0, 189.76593404639559
      L 91.0578181261665, 189.76593404639559
      A 0 0 0 0 1, 91.0578181261665, 189.76593404639559
      L 91.0578181261665, 198.12957041003196
      A 0 0 0 0 1, 91.0578181261665, 198.12957041003196
      L 0, 198.12957041003196
      z" role="presentation" shape-rendering="auto"></path><path d="M 0, 215.5347951872106
      L 0, 207.17115882357422
      L 86.14661996070484, 207.17115882357422
      A 0 0 0 0 1, 86.14661996070484, 207.17115882357422
      L 86.14661996070484, 215.5347951872106
      A 0 0 0 0 1, 86.14661996070484, 215.5347951872106
      L 0, 215.5347951872106
      z" role="presentation" shape-rendering="auto"></path><path d="M 0, 232.94001996438922
      L 0, 224.57638360075285
      L 82.579472136245, 224.57638360075285
      A 0 0 0 0 1, 82.579472136245, 224.57638360075285
      L 82.579472136245, 232.94001996438922
      A 0 0 0 0 1, 82.579472136245, 232.94001996438922
      L 0, 232.94001996438922
      z" role="presentation" shape-rendering="auto"></path><path d="M 0, 250.34524474156785
      L 0, 241.98160837793148
      L 81.86604257135303, 241.98160837793148
      A 0 0 0 0 1, 81.86604257135303, 241.98160837793148
      L 81.86604257135303, 250.34524474156785
      A 0 0 0 0 1, 81.86604257135303, 250.34524474156785
      L 0, 250.34524474156785
      z" role="presentation" shape-rendering="auto"></path><path d="M 0, 267.75046951874646
      L 0, 259.3868331551101
      L 79.49006732398962, 259.3868331551101
      A 0 0 0 0 1, 79.49006732398962, 259.3868331551101
      L 79.49006732398962, 267.75046951874646
      A 0 0 0 0 1, 79.49006732398962, 267.75046951874646
      L 0, 267.75046951874646
      z" role="presentation" shape-rendering="auto"></path><path d="M 0, 285.15569429592506
      L 0, 276.7920579322887
      L 79.40088862837811, 276.7920579322887
      A 0 0 0 0 1, 79.40088862837811, 276.7920579322887
      L 79.40088862837811, 285.15569429592506
      A 0 0 0 0 1, 79.40088862837811, 285.15569429592506
      L 0, 285.15569429592506
      z" role="presentation" shape-rendering="auto"></path><path d="M 0, 302.5609190731037
      L 0, 294.19728270946734
      L 76.17771577270548, 294.19728270946734
      A 0 0 0 0 1, 76.17771577270548, 294.19728270946734
      L 76.17771577270548, 302.5609190731037
      A 0 0 0 0 1, 76.17771577270548, 302.5609190731037
      L 0, 302.5609190731037
      z" role="presentation" shape-rendering="auto"></path><path d="M 0, 319.9661438502823
      L 0, 311.60250748664595
      L 75.34962788488446, 311.60250748664595
      A 0 0 0 0 1, 75.34962788488446, 311.60250748664595
      L 75.34962788488446, 319.9661438502823
      A 0 0 0 0 1, 75.34962788488446, 319.9661438502823
      L 0, 319.9661438502823
      z" role="presentation" shape-rendering="auto"></path><path d="M 0, 337.3713686274609
      L 0, 329.00773226382455
      L 72.03090642677094, 329.00773226382455
      A 0 0 0 0 1, 72.03090642677094, 329.00773226382455
      L 72.03090642677094, 337.3713686274609
      A 0 0 0 0 1, 72.03090642677094, 337.3713686274609
      L 0, 337.3713686274609
      z" role="presentation" shape-rendering="auto"></path><path d="M 0, 354.7765934046396
      L 0, 346.4129570410032
      L 65.72469866567232, 346.4129570410032
      A 0 0 0 0 1, 65.72469866567232, 346.4129570410032
      L 65.72469866567232, 354.7765934046396
      A 0 0 0 0 1, 65.72469866567232, 354.7765934046396
      L 0, 354.7765934046396
      z" role="presentation" shape-rendering="auto"></path><a href="http://vuejs.org" target="_blank"><text dx="0" dy="4.26" x="258.10165184243965" y="19.895504456427545"><tspan x="258.10165184243965" dx="0" text-anchor="start" style="font-size: 12px; letter-spacing: normal; padding: 8px;">Vue.js</tspan></text></a><a href="https://reactjs.org" target="_blank"><text dx="0" dy="4.26" x="181.90482634924595" y="37.300729233606205"><tspan x="181.90482634924595" dx="0" text-anchor="start" style="font-size: 12px; letter-spacing: normal; padding: 8px;">React</tspan></text></a><a href="https://github.com/facebookincubator/create-react-app" target="_blank"><text dx="0" dy="4.26" x="149.36097235787943" y="54.70595401078481"><tspan x="149.36097235787943" dx="0" text-anchor="start" style="font-size: 12px; letter-spacing: normal; padding: 8px;">Create React App</tspan></text></a><a href="https://github.com/axios/axios" target="_blank"><text dx="0" dy="4.26" x="145.43710975097363" y="72.11117878796341"><tspan x="145.43710975097363" dx="0" text-anchor="start" style="font-size: 12px; letter-spacing: normal; padding: 8px;">Axios</tspan></text></a><a href="https://github.com/GoogleChrome/puppeteer" target="_blank"><text dx="0" dy="4.26" x="145.41163012365607" y="89.51640356514207"><tspan x="145.41163012365607" dx="0" text-anchor="start" style="font-size: 12px; letter-spacing: normal; padding: 8px;">Puppeteer</tspan></text></a><a href="https://code.visualstudio.com" target="_blank"><text dx="0" dy="4.26" x="134.21333391758395" y="106.92162834232067"><tspan x="134.21333391758395" dx="0" text-anchor="start" style="font-size: 12px; letter-spacing: normal; padding: 8px;">VS Code</tspan></text></a><a href="https://prettier.io/" target="_blank"><text dx="0" dy="4.26" x="118.24397749629684" y="124.3268531194993"><tspan x="118.24397749629684" dx="0" text-anchor="start" style="font-size: 12px; letter-spacing: normal; padding: 8px;">Prettier</tspan></text></a><a href="http://facebook.github.io/react-native/" target="_blank"><text dx="0" dy="4.26" x="105.65067169458777" y="141.7320778966779"><tspan x="105.65067169458777" dx="0" text-anchor="start" style="font-size: 12px; letter-spacing: normal; padding: 8px;">React Native</tspan></text></a><a href="http://element.eleme.io/" target="_blank"><text dx="0" dy="4.26" x="101.40831374621234" y="159.13730267385654"><tspan x="101.40831374621234" dx="0" text-anchor="start" style="font-size: 12px; letter-spacing: normal; padding: 8px;">Element</tspan></text></a><a href="https://electronjs.org" target="_blank"><text dx="0" dy="4.26" x="100.58022585839132" y="176.54252745103514"><tspan x="100.58022585839132" dx="0" text-anchor="start" style="font-size: 12px; letter-spacing: normal; padding: 8px;">Electron</tspan></text></a><a href="http://getbootstrap.com" target="_blank"><text dx="0" dy="4.26" x="99.0578181261665" y="193.94775222821377"><tspan x="99.0578181261665" dx="0" text-anchor="start" style="font-size: 12px; letter-spacing: normal; padding: 8px;">Bootstrap</tspan></text></a><a href="https://nodejs.org" target="_blank"><text dx="0" dy="4.26" x="94.14661996070484" y="211.3529770053924"><tspan x="94.14661996070484" dx="0" text-anchor="start" style="font-size: 12px; letter-spacing: normal; padding: 8px;">Node.js</tspan></text></a><a href="http://ant.design" target="_blank"><text dx="0" dy="4.26" x="90.579472136245" y="228.75820178257104"><tspan x="90.579472136245" dx="0" text-anchor="start" style="font-size: 12px; letter-spacing: normal; padding: 8px;">Ant Design</tspan></text></a><a href="https://webpack.js.org" target="_blank"><text dx="0" dy="4.26" x="89.86604257135303" y="246.16342655974967"><tspan x="89.86604257135303" dx="0" text-anchor="start" style="font-size: 12px; letter-spacing: normal; padding: 8px;">Webpack</tspan></text></a><a href="https://d3js.org" target="_blank"><text dx="0" dy="4.26" x="87.49006732398962" y="263.56865133692827"><tspan x="87.49006732398962" dx="0" text-anchor="start" style="font-size: 12px; letter-spacing: normal; padding: 8px;">D3</tspan></text></a><a href="https://zeit.co/blog/next4" target="_blank"><text dx="0" dy="4.26" x="87.40088862837811" y="280.9738761141069"><tspan x="87.40088862837811" dx="0" text-anchor="start" style="font-size: 12px; letter-spacing: normal; padding: 8px;">Next.js</tspan></text></a><a href="https://angular.io" target="_blank"><text dx="0" dy="4.26" x="84.17771577270548" y="298.37910089128553"><tspan x="84.17771577270548" dx="0" text-anchor="start" style="font-size: 12px; letter-spacing: normal; padding: 8px;">Angular 2</tspan></text></a><a href="https://bulma.io" target="_blank"><text dx="0" dy="4.26" x="83.34962788488446" y="315.78432566846413"><tspan x="83.34962788488446" dx="0" text-anchor="start" style="font-size: 12px; letter-spacing: normal; padding: 8px;">Bulma</tspan></text></a><a href="http://www.typescriptlang.org" target="_blank"><text dx="0" dy="4.26" x="80.03090642677094" y="333.18955044564274"><tspan x="80.03090642677094" dx="0" text-anchor="start" style="font-size: 12px; letter-spacing: normal; padding: 8px;">TypeScript</tspan></text></a><a href="https://preactjs.com" target="_blank"><text dx="0" dy="4.26" x="73.72469866567232" y="350.5947752228214"><tspan x="73.72469866567232" dx="0" text-anchor="start" style="font-size: 12px; letter-spacing: normal; padding: 8px;">Preact</tspan></text></a></g></svg>